<svg viewBox="0 0 33 33" fill="none" xmlns="http://www.w3.org/2000/svg">
<rect width="33" height="33" rx="10" fill="white" fill-opacity="0.26"/>
<path d="M15.8438 21.9688H13.875C12.9125 21.9688 12.125 22.7563 12.125 23.7188V23.9375H11.25C10.8913 23.9375 10.5938 24.235 10.5938 24.5938C10.5938 24.9525 10.8913 25.25 11.25 25.25H21.75C22.1088 25.25 22.4062 24.9525 22.4062 24.5938C22.4062 24.235 22.1088 23.9375 21.75 23.9375H20.875V23.7188C20.875 22.7563 20.0875 21.9688 19.125 21.9688H17.1562V19.965C16.9375 19.9913 16.7188 20 16.5 20C16.2812 20 16.0625 19.9913 15.8438 19.965V21.9688Z" fill="white"/>
<path d="M22.1701 16.185C22.7476 15.9663 23.2551 15.6075 23.6576 15.205C24.4714 14.3038 25.0051 13.2275 25.0051 11.9675C25.0051 10.7075 24.0164 9.71875 22.7564 9.71875H22.2664C21.6976 8.555 20.5076 7.75 19.1251 7.75H13.8751C12.4926 7.75 11.3026 8.555 10.7339 9.71875H10.2439C8.98387 9.71875 7.99512 10.7075 7.99512 11.9675C7.99512 13.2275 8.52887 14.3038 9.34262 15.205C9.74512 15.6075 10.2526 15.9663 10.8301 16.185C11.7401 18.425 13.9276 20 16.5001 20C19.0726 20 21.2601 18.425 22.1701 16.185ZM18.9851 13.3937L18.4426 14.0588C18.3551 14.155 18.2939 14.3475 18.3026 14.4787L18.3551 15.3363C18.3901 15.8612 18.0139 16.1325 17.5239 15.94L16.7276 15.625C16.6051 15.5813 16.3951 15.5813 16.2726 15.625L15.4764 15.94C14.9864 16.1325 14.6101 15.8612 14.6451 15.3363L14.6976 14.4787C14.7064 14.3475 14.6451 14.155 14.5576 14.0588L14.0151 13.3937C13.6739 12.9913 13.8226 12.545 14.3301 12.4137L15.1614 12.2038C15.2926 12.1688 15.4501 12.0463 15.5201 11.9325L15.9839 11.215C16.2726 10.7687 16.7276 10.7687 17.0164 11.215L17.4801 11.9325C17.5501 12.0463 17.7076 12.1688 17.8389 12.2038L18.6701 12.4137C19.1776 12.545 19.3264 12.9913 18.9851 13.3937Z" fill="white"/>
</svg>
