<svg viewBox="0 0 183 51" fill="none" xmlns="http://www.w3.org/2000/svg">
<path d="M7.96518 0.874937H1.53589V34.5254H7.96518V0.874937Z" fill="#121212"/>
<path d="M25.1956 20.3701V14.4165L4.87899 14.4165V20.3701H25.1956Z" fill="#121212"/>
<path d="M28.0245 0.874937H21.5952V34.5254H28.0245V0.874937Z" fill="#121212"/>
<path d="M64.6165 14.0616C66.8149 9.53549 70.3698 9.66116 72.5153 9.66116L72.5498 16.1472C69.5578 15.8884 64.6165 15.759 64.6165 22.4853V34.5551H58.3708V9.9126H64.6165V14.0616Z" fill="#121212"/>
<path d="M92.4373 21.9788C92.3174 17.8296 90.0802 14.9518 86.3787 14.8528L86.202 14.8504C82.421 14.8504 80.1019 17.6774 80.1019 21.9788C80.1019 26.2801 81.3875 29.2189 85.9269 29.8032L86.1453 29.8052C90.5171 29.4779 92.5716 26.6286 92.4373 21.9788ZM98.7467 21.9788C98.7467 25.445 97.6322 28.7958 95.2966 31.3432C92.8538 34.0075 89.4888 35.0431 86.202 35.0431C82.8038 35.0431 79.2734 34.0881 76.8289 31.1735C74.6152 28.5339 73.801 25.1476 73.801 21.9788C73.801 15.7082 78.662 9.41695 86.202 9.41695C93.6078 9.41702 98.7467 15.5624 98.7467 21.9788Z" fill="#121212"/>
<path fill-rule="evenodd" clip-rule="evenodd" d="M43.2713 9.40968C50.8442 9.40974 55.2113 14.816 55.4611 21.9824C55.4611 22.6591 55.4272 23.3313 55.3557 23.994H37.1199C37.5056 28.1118 39.2361 30.213 43.2713 30.2804L43.4945 30.2824C45.8009 30.2824 47.7166 29.6517 49.0907 27.5144H54.9244C54.5868 29.0231 53.656 30.3977 52.5882 31.5377C50.0903 34.2042 46.6322 35.0579 43.2713 35.058C39.7964 35.058 36.1863 34.102 33.6867 31.185C31.4231 28.5432 30.8535 25.1539 30.8535 21.9824C30.8535 15.7064 35.5612 9.40968 43.2713 9.40968ZM43.2713 14.4387C40.1192 14.4387 37.9611 16.5912 37.2711 19.7193H49.3992C48.8409 16.4503 46.7173 14.4387 43.4521 14.4412L43.2713 14.4387Z" fill="#121212"/>
<path d="M172.338 0.926918H166.423V34.8362H172.338V0.926918Z" fill="#1D97E5"/>
<path d="M129.739 0.874937H135.972L135.775 34.7842H129.542L129.739 0.874937Z" fill="#1D97E5"/>
<path d="M152.26 9.9348H145.169L134.944 20.944L145.764 34.7843H153.718L142.375 20.944L152.26 9.9348Z" fill="#1D97E5"/>
<path d="M161.795 9.94936H155.88V35.0578H161.795V9.94936Z" fill="#1D97E5"/>
<path d="M182.882 0.926918H176.968V34.8362H182.882V0.926918Z" fill="#1D97E5"/>
<path d="M158.821 7.13925C160.753 7.13925 162.319 5.56313 162.319 3.61888C162.319 1.67464 160.753 0.0985222 158.821 0.0985222C156.89 0.0985222 155.324 1.67464 155.324 3.61888C155.324 5.56313 156.89 7.13925 158.821 7.13925Z" fill="#1D97E5"/>
<path d="M108.005 25.0139H101.264C101.145 29.9697 105.69 35.302 113.986 35.302C123.177 35.302 127.768 28.9841 126.092 22.4724C124.463 16.1472 117.263 16.406 111.991 14.4646C106.768 12.5413 106.976 6.31085 113.201 5.95316C117.898 5.6832 118.935 8.51107 119.24 10.1936H125.621C125.621 4.47536 121.198 0.616152 113.201 0.616152C104.276 0.616152 100.343 7.73452 102.219 13.2997C104.662 20.5476 115.942 19.8714 118.691 22.4724C121.378 25.0139 119.192 30.296 113.917 29.7367C109.034 29.219 108.045 26.7506 108.005 25.0139Z" fill="#1D97E5"/>
<path d="M8.70838 45.7982H6.98317C6.88168 44.981 6.05854 44.5838 5.26921 44.5838C4.99859 44.5838 4.7167 44.6406 4.4799 44.7313C3.07041 45.2875 2.93509 47.6481 3.76951 48.7264C4.14162 49.2031 4.69414 49.43 5.25794 49.43C5.99088 49.43 6.72382 49.0328 7.00571 48.2838H8.70838C8.58434 49.7025 7.27634 50.7238 5.94577 50.9282C5.67515 50.9736 5.42708 50.9963 5.17901 50.9963C0.48821 50.9963 0.0822753 43.0515 5.30305 43.0515C5.44963 43.0515 5.59622 43.0629 5.75408 43.0743C7.1974 43.1878 8.69711 44.232 8.70838 45.7982ZM12.5814 43.0515H17.9375V44.5952H14.3179V46.2181H17.4639V47.7616H14.3179V49.3846H17.9375V50.9963H12.5814V43.0515ZM23.5798 44.6292V46.8877H24.9104C26.1846 46.8877 26.2861 44.6292 24.978 44.6292H23.5798ZM23.5798 48.3973V50.9963H21.8096V43.0515H24.978C26.8725 43.0515 28.1354 44.7087 27.628 46.5473C27.1205 48.3859 25.1585 48.4313 23.5798 48.3973ZM33.358 47.6935V49.5549C33.6964 49.5549 34.091 49.589 34.4744 49.589C34.9931 49.589 35.4892 49.5321 35.7824 49.2598C36.2334 48.8512 36.2109 47.6935 34.8578 47.6935H33.358ZM33.358 44.5952V46.343H34.7901C36.1771 46.343 36.0756 44.5952 35.0607 44.5952H33.358ZM35.4554 43.1084C36.8874 43.1764 37.9361 44.3455 37.5528 45.8323C37.3497 46.5927 36.9777 46.797 36.6957 47.0126C39.0411 47.8637 37.519 50.9963 35.5344 50.9963H31.6103V43.0403C32.8506 43.0403 34.2038 43.0515 35.4554 43.1084ZM46.7586 43.0515H48.5741V50.9963H46.8264V45.9004L43.5902 50.9963H41.7634V43.0515H43.5224V48.2157L46.7586 43.0515ZM59.6392 45.7982H57.914C57.8124 44.981 56.9893 44.5838 56.2 44.5838C55.9294 44.5838 55.6475 44.6406 55.4106 44.7313C54.0011 45.2875 53.8658 47.6481 54.7003 48.7264C55.0724 49.2031 55.6249 49.43 56.1888 49.43C56.9216 49.43 57.6546 49.0328 57.9365 48.2838H59.6392C59.5151 49.7025 58.2072 50.7238 56.8766 50.9282C56.6059 50.9736 56.3579 50.9963 56.1098 50.9963C51.419 50.9963 51.0131 43.0515 56.2338 43.0515C56.3804 43.0515 56.527 43.0629 56.6849 43.0743C58.1282 43.1878 59.6279 44.232 59.6392 45.7982ZM72.781 44.6064C70.7401 44.9584 70.7401 49.1236 72.8375 49.4074C72.9952 49.43 73.1418 49.4414 73.2884 49.4414C74.8671 49.4414 75.4648 48.0908 75.3182 46.5018C75.2054 45.2535 74.4048 44.5611 73.2771 44.5611C73.1193 44.5611 72.9502 44.5838 72.781 44.6064ZM72.7134 43.0856C72.9163 43.0629 73.1193 43.0515 73.311 43.0515C78.1709 43.0515 78.3739 50.3039 73.886 50.9396C73.6606 50.9736 73.435 50.9849 73.2321 50.9849C68.6202 50.9849 68.1466 43.5963 72.7134 43.0856ZM84.5996 47.6823C84.0471 47.5914 83.2691 47.6255 82.6039 47.6255V49.4528H84.5771C85.2988 49.4528 85.558 47.8525 84.5996 47.6823ZM80.8673 43.0515H86.4151V44.5952H82.6039V46.082H84.983C87.5991 46.082 87.7682 50.9963 84.7801 50.9963H80.8673V43.0515ZM92.6256 44.6292V46.8877H93.9561C95.2304 46.8877 95.3318 44.6292 94.0238 44.6292H92.6256ZM92.6256 48.3973V50.9963H90.8552V43.0515H94.0238C95.9182 43.0515 97.181 44.7087 96.6737 46.5473C96.1663 48.3859 94.2042 48.4313 92.6256 48.3973ZM103.52 47.9092H105.516L104.58 44.7654L103.52 47.9092ZM105.685 43.0515L108.38 50.9963H106.52L106.012 49.396L103.024 49.3846L102.483 50.9963H100.656L103.328 43.0515H105.685ZM115.386 46.2636C115.984 46.1955 116.48 45.8436 116.277 45.1853C116.142 44.754 115.68 44.5497 115.206 44.5497C114.586 44.5497 113.954 44.9015 113.943 45.5484H112.308C112.466 43.7553 113.695 43.0403 115.274 43.0403C115.465 43.0403 115.657 43.0515 115.849 43.0743C117.63 43.2672 118.871 45.015 117.506 46.5018L116.92 46.8536C118.622 47.2056 118.724 49.5209 117.371 50.3948C116.773 50.792 116.029 50.9849 115.296 50.9849C113.864 50.9849 112.466 50.2132 112.252 48.6129H113.943C114.045 49.1577 114.665 49.43 115.262 49.43C115.916 49.43 116.559 49.0896 116.458 48.3973C116.424 48.1022 116.052 47.6935 115.781 47.6935H114.45V46.2636C114.755 46.2408 115.104 46.2976 115.386 46.2636ZM125.319 44.6064C123.279 44.9584 123.279 49.1236 125.376 49.4074C125.533 49.43 125.681 49.4414 125.827 49.4414C127.405 49.4414 128.003 48.0908 127.856 46.5018C127.743 45.2535 126.944 44.5611 125.816 44.5611C125.657 44.5611 125.489 44.5838 125.319 44.6064ZM125.252 43.0856C125.455 43.0629 125.657 43.0515 125.849 43.0515C130.71 43.0515 130.913 50.3039 126.425 50.9396C126.199 50.9736 125.973 50.9849 125.771 50.9849C121.159 50.9849 120.685 43.5963 125.252 43.0856ZM135.153 47.6935V49.5549C135.492 49.5549 135.886 49.589 136.27 49.589C136.789 49.589 137.284 49.5321 137.578 49.2598C138.028 48.8512 138.006 47.6935 136.653 47.6935H135.153ZM135.153 44.5952V46.343H136.586C137.973 46.343 137.871 44.5952 136.856 44.5952H135.153ZM137.251 43.1084C138.683 43.1764 139.732 44.3455 139.348 45.8323C139.145 46.5927 138.774 46.797 138.491 47.0126C140.836 47.8637 139.315 50.9963 137.33 50.9963H133.405V43.0403C134.646 43.0403 135.999 43.0515 137.251 43.1084ZM146.423 47.9092H148.419L147.483 44.7654L146.423 47.9092ZM148.588 43.0515L151.282 50.9963H149.423L148.915 49.396L145.926 49.3846L145.385 50.9963H143.559L146.231 43.0515H148.588ZM160.049 43.0515H161.818V50.9963H160.049V47.7049H156.992V50.9963H155.155V43.0515H156.925V46.1387H160.049V43.0515ZM170.677 43.0515H172.492V50.9963H170.745V45.9004L167.509 50.9963H165.683V43.0515H167.441V48.2157L170.677 43.0515ZM179.149 46.9219H180.862V44.981C180.491 44.8562 180.164 44.8108 179.882 44.8108C178.089 44.8108 178.067 46.9219 179.149 46.9219ZM178.788 43.0515H182.712V50.9963H180.862V48.5901L179.804 48.6469L178.663 50.9963H176.364L177.954 48.4313C175.912 47.4439 176.466 43.0515 178.788 43.0515Z" fill="#121212"/>
</svg>
