<svg viewBox="0 0 33 33" fill="none" xmlns="http://www.w3.org/2000/svg">
<rect width="33" height="33" rx="10" fill="white" fill-opacity="0.26"/>
<path d="M25.25 10.2438V20.6475C25.25 21.4963 24.5587 22.275 23.71 22.38L23.4388 22.415C22.0038 22.6075 19.9825 23.2025 18.355 23.885C17.7862 24.1213 17.1562 23.6925 17.1562 23.0712V10.9C17.1562 10.5763 17.34 10.2788 17.6287 10.1213C19.23 9.255 21.6538 8.485 23.2988 8.345H23.3512C24.4012 8.345 25.25 9.19375 25.25 10.2438Z" fill="white"/>
<path d="M15.3712 10.1213C13.77 9.255 11.3462 8.485 9.70121 8.345H9.63996C8.58996 8.345 7.74121 9.19375 7.74121 10.2438V20.6475C7.74121 21.4963 8.43246 22.275 9.28121 22.38L9.55246 22.415C10.9875 22.6075 13.0087 23.2025 14.6362 23.885C15.205 24.1213 15.835 23.6925 15.835 23.0712V10.9C15.835 10.5675 15.66 10.2788 15.3712 10.1213ZM10.375 12.7725H12.3437C12.7025 12.7725 13 13.07 13 13.4288C13 13.7963 12.7025 14.085 12.3437 14.085H10.375C10.0162 14.085 9.71871 13.7963 9.71871 13.4288C9.71871 13.07 10.0162 12.7725 10.375 12.7725ZM13 16.71H10.375C10.0162 16.71 9.71871 16.4213 9.71871 16.0538C9.71871 15.695 10.0162 15.3975 10.375 15.3975H13C13.3587 15.3975 13.6562 15.695 13.6562 16.0538C13.6562 16.4213 13.3587 16.71 13 16.71Z" fill="white"/>
</svg>
