<svg viewBox="0 0 33 33" fill="none" xmlns="http://www.w3.org/2000/svg">
<rect width="33" height="33" rx="10" fill="white" fill-opacity="0.26"/>
<path d="M25.25 25.25H7.75C7.39125 25.25 7.09375 24.9525 7.09375 24.5938C7.09375 24.235 7.39125 23.9375 7.75 23.9375H25.25C25.6087 23.9375 25.9062 24.235 25.9062 24.5938C25.9062 24.9525 25.6087 25.25 25.25 25.25Z" fill="white"/>
<path d="M14.5312 9.5V25.25H18.4688V9.5C18.4688 8.5375 18.075 7.75 16.8937 7.75H16.1063C14.925 7.75 14.5312 8.5375 14.5312 9.5Z" fill="white"/>
<path d="M8.625 14.75V25.25H12.125V14.75C12.125 13.7875 11.775 13 10.725 13H10.025C8.975 13 8.625 13.7875 8.625 14.75Z" fill="white"/>
<path d="M20.875 19.125V25.25H24.375V19.125C24.375 18.1625 24.025 17.375 22.975 17.375H22.275C21.225 17.375 20.875 18.1625 20.875 19.125Z" fill="white"/>
</svg>
